<?xml version="1.0" encoding="utf-8"?><!-- Create by Hoc Tin Hoc Qua Tro Choi--><!-- Browser Support Chrome:4.0 IE:9.0 Firefox:3.0 Safari:3.2 Opera:10.1 -->
<svg version="1.1" id="Layer_1"
xmlns="http://www.w3.org/2000/svg"
xmlns:xlink="http://www.w3.org/1999/xlink"
width="198px" height="199px"
xml:space="preserve">
<g id="PathID_11" transform="matrix(0.841976, -0.539514, 0.539514, 0.841976, 98, 98)" opacity="1">
<path style="fill:#00BFFF;fill-opacity:1" d="M22.65 -60.1L25.85 -43.6Q27.85 -33.75 35.05 -22.6Q39.95 -15.15 45.3 -10.1Q45.95 -9.3 46.75 -8.65L50.45 -5.7L64.15 4Q72.25 9.7 71.2 15.3Q70 20.75 60.15 22.75L43.7 25.95Q33.85 27.8 22.65 35Q15.35 39.65 10.45 44.85L8.45 46.95Q6.95 48.55 5.8 50.3L-3.95 64.1Q-9.65 72.25 -15.25 71.15Q-20.8 69.95 -22.7 60.15L-25.9 43.5Q-27.85 33.8 -35.05 22.75Q-40 15.3 -45.15 10.25L-46.75 8.8L-50.5 5.85L-64.2 -4Q-72.3 -9.7 -71.1 -15.3Q-70.05 -20.75 -60.2 -22.6L-43.7 -25.9Q-33.85 -27.8 -22.7 -34.95Q-15.25 -39.75 -10.2 -45.05L-8.7 -46.65Q-7.1 -48.55 -5.8 -50.4L3.9 -64.1Q9.75 -72.35 15.2 -71.15Q20.8 -69.95 22.65 -60.1" />
</g>
<g id="PathID_12" transform="matrix(0.742188, 0, 0, 0.742188, 76, 92.4)" opacity="0.9">
<path style="fill:#000000;fill-opacity:1" d="M3.65 0L3.65 -7.05L10.7 -7.05L10.7 0L3.65 0" />
</g>
<g id="PathID_13" transform="matrix(0.742188, 0, 0, 0.742188, 86.55, 92.4)" opacity="0.9">
<path style="fill:#000000;fill-opacity:1" d="M1.2 -7.55L8.25 -8.65Q8.7 -6.6 10.05 -5.55Q11.45 -4.5 13.9 -4.5Q16.65 -4.5 18 -5.45Q18.95 -6.15 18.95 -7.35Q18.95 -8.15 18.45 -8.65Q17.9 -9.15 16.1 -9.6Q7.6 -11.45 5.3 -13Q2.2 -15.15 2.2 -19Q2.2 -22.45 4.9 -24.8Q7.6 -27.15 13.35 -27.15Q18.8 -27.15 21.45 -25.35Q24.1 -23.6 25.1 -20.15L18.45 -18.9Q18 -20.45 16.8 -21.25Q15.65 -22.1 13.45 -22.1Q10.7 -22.1 9.5 -21.3Q8.75 -20.75 8.75 -19.9Q8.75 -19.15 9.4 -18.6Q10.35 -17.9 15.95 -16.6Q21.55 -15.35 23.8 -13.5Q26 -11.65 26 -8.3Q26 -4.65 22.95 -2Q19.9 0.6 13.9 0.6Q8.5 0.6 5.3 -1.55Q2.15 -3.75 1.2 -7.55" />
</g>
<g id="PathID_14" transform="matrix(0.742188, 0, 0, 0.742188, 107.7, 92.4)" opacity="0.9">
<path style="fill:#000000;fill-opacity:1" d="M8.65 0L0.25 -26.55L7.05 -26.55L12.05 -9.15L16.65 -26.55L23.45 -26.55L27.85 -9.15L32.95 -26.55L39.9 -26.55L31.35 0L24.6 0L20 -17.05L15.5 0L8.65 0" />
</g>
<g id="PathID_15" transform="matrix(0.742188, 0, 0, 0.742188, 137.25, 92.4)" opacity="0.9">
<path style="fill:#000000;fill-opacity:1" d="M0.6 -26.55L4.5 -26.55L4.5 -28.55Q4.5 -31.9 5.2 -33.55Q5.9 -35.2 7.8 -36.25Q9.75 -37.3 12.7 -37.3Q15.75 -37.3 18.65 -36.4L17.7 -31.5Q16 -31.9 14.4 -31.9Q12.85 -31.9 12.2 -31.15Q11.55 -30.45 11.55 -28.4L11.55 -26.55L16.8 -26.55L16.8 -21L11.55 -21L11.55 0L4.5 0L4.5 -21L0.6 -21L0.6 -26.55" />
</g>
</svg>
