<?xml version="1.0" encoding="utf-8"?><!-- Create by Hoc Tin Hoc Qua Tro Choi--><!-- Browser Support Chrome:4.0 IE:9.0 Firefox:3.0 Safari:3.2 Opera:10.1 -->
<svg version="1.1" id="Layer_1"
xmlns="http://www.w3.org/2000/svg"
xmlns:xlink="http://www.w3.org/1999/xlink"
width="198px" height="199px"
xml:space="preserve">
<g id="PathID_1" transform="matrix(0.841976, -0.539514, 0.539514, 0.841976, 98, 98)" opacity="1">
<path style="fill:#00BFFF;fill-opacity:1" d="M22.65 -60.1L25.85 -43.6Q27.85 -33.75 35.05 -22.6Q39.95 -15.15 45.3 -10.1Q45.95 -9.3 46.75 -8.65L50.45 -5.7L64.15 4Q72.25 9.7 71.2 15.3Q70 20.75 60.15 22.75L43.7 25.95Q33.85 27.8 22.65 35Q15.35 39.65 10.45 44.85L8.45 46.95Q6.95 48.55 5.8 50.3L-3.95 64.1Q-9.65 72.25 -15.25 71.15Q-20.8 69.95 -22.7 60.15L-25.9 43.5Q-27.85 33.8 -35.05 22.75Q-40 15.3 -45.15 10.25L-46.75 8.8L-50.5 5.85L-64.2 -4Q-72.3 -9.7 -71.1 -15.3Q-70.05 -20.75 -60.2 -22.6L-43.7 -25.9Q-33.85 -27.8 -22.7 -34.95Q-15.25 -39.75 -10.2 -45.05L-8.7 -46.65Q-7.1 -48.55 -5.8 -50.4L3.9 -64.1Q9.75 -72.35 15.2 -71.15Q20.8 -69.95 22.65 -60.1" />
</g>
<g id="PathID_2" transform="matrix(0.742188, 0, 0, 0.742188, 76, 92.4)" opacity="0.9">
<path style="fill:#000000;fill-opacity:1" d="M3.65 0L3.65 -7.05L10.7 -7.05L10.7 0L3.65 0" />
</g>
<g id="PathID_3" transform="matrix(0.742188, 0, 0, 0.742188, 86.55, 92.4)" opacity="0.9">
<path style="fill:#000000;fill-opacity:1" d="M19.05 -8.45L26.05 -7.25Q24.7 -3.4 21.75 -1.4Q18.85 0.6 14.5 0.6Q7.55 0.6 4.25 -3.9Q1.65 -7.55 1.65 -13.05Q1.65 -19.65 5.1 -23.4Q8.55 -27.15 13.8 -27.15Q19.75 -27.15 23.15 -23.2Q26.6 -19.3 26.45 -11.25L8.85 -11.25Q8.9 -8.1 10.5 -6.35Q12.15 -4.65 14.55 -4.65Q16.2 -4.65 17.3 -5.55Q18.45 -6.45 19.05 -8.45M19.45 -15.55Q19.35 -18.55 17.85 -20.15Q16.35 -21.75 14.2 -21.75Q11.9 -21.75 10.4 -20.05Q8.95 -18.4 8.95 -15.55L19.45 -15.55" />
</g>
<g id="PathID_4" transform="matrix(0.742188, 0, 0, 0.742188, 107.7, 92.4)" opacity="0.9">
<path style="fill:#000000;fill-opacity:1" d="M0.3 0L9.85 -13.65L0.7 -26.55L9.3 -26.55L13.95 -19.25L18.9 -26.55L27.1 -26.55L18.15 -13.95L27.95 0L19.3 0L13.95 -8.2L8.5 0L0.3 0" />
</g>
<g id="PathID_5" transform="matrix(0.742188, 0, 0, 0.742188, 128.85, 92.4)" opacity="0.9">
<path style="fill:#000000;fill-opacity:1" d="M19.05 -8.45L26.05 -7.25Q24.7 -3.4 21.75 -1.4Q18.85 0.6 14.5 0.6Q7.55 0.6 4.25 -3.9Q1.65 -7.55 1.65 -13.05Q1.65 -19.65 5.1 -23.4Q8.55 -27.15 13.8 -27.15Q19.75 -27.15 23.15 -23.2Q26.6 -19.3 26.45 -11.25L8.85 -11.25Q8.9 -8.1 10.5 -6.35Q12.15 -4.65 14.55 -4.65Q16.2 -4.65 17.3 -5.55Q18.45 -6.45 19.05 -8.45M19.45 -15.55Q19.35 -18.55 17.85 -20.15Q16.35 -21.75 14.2 -21.75Q11.9 -21.75 10.4 -20.05Q8.95 -18.4 8.95 -15.55L19.45 -15.55" />
</g>
</svg>
