<?xml version="1.0" encoding="utf-8"?><!-- Create by Hoc Tin Hoc Qua Tro Choi--><!-- Browser Support Chrome:4.0 IE:9.0 Firefox:3.0 Safari:3.2 Opera:10.1 -->
<svg version="1.1" id="Layer_1"
xmlns="http://www.w3.org/2000/svg"
xmlns:xlink="http://www.w3.org/1999/xlink"
width="198px" height="199px"
xml:space="preserve">
<g id="PathID_6" transform="matrix(0.841976, -0.539514, 0.539514, 0.841976, 98, 98)" opacity="1">
<path style="fill:#00BFFF;fill-opacity:1" d="M22.65 -60.1L25.85 -43.6Q27.85 -33.75 35.05 -22.6Q39.95 -15.15 45.3 -10.1Q45.95 -9.3 46.75 -8.65L50.45 -5.7L64.15 4Q72.25 9.7 71.2 15.3Q70 20.75 60.15 22.75L43.7 25.95Q33.85 27.8 22.65 35Q15.35 39.65 10.45 44.85L8.45 46.95Q6.95 48.55 5.8 50.3L-3.95 64.1Q-9.65 72.25 -15.25 71.15Q-20.8 69.95 -22.7 60.15L-25.9 43.5Q-27.85 33.8 -35.05 22.75Q-40 15.3 -45.15 10.25L-46.75 8.8L-50.5 5.85L-64.2 -4Q-72.3 -9.7 -71.1 -15.3Q-70.05 -20.75 -60.2 -22.6L-43.7 -25.9Q-33.85 -27.8 -22.7 -34.95Q-15.25 -39.75 -10.2 -45.05L-8.7 -46.65Q-7.1 -48.55 -5.8 -50.4L3.9 -64.1Q9.75 -72.35 15.2 -71.15Q20.8 -69.95 22.65 -60.1" />
</g>
<g id="PathID_7" transform="matrix(0.742188, 0, 0, 0.742188, 76, 92.4)" opacity="0.9">
<path style="fill:#000000;fill-opacity:1" d="M3.65 0L3.65 -7.05L10.7 -7.05L10.7 0L3.65 0" />
</g>
<g id="PathID_8" transform="matrix(0.742188, 0, 0, 0.742188, 86.55, 92.4)" opacity="0.9">
<path style="fill:#000000;fill-opacity:1" d="M3.5 -30.15L3.5 -36.65L10.55 -36.65L10.55 -30.15L3.5 -30.15M10.55 -26.55L10.55 -0.8Q10.55 4.3 9.85 6.35Q9.2 8.45 7.3 9.6Q5.45 10.8 2.5 10.8Q1.45 10.8 0.25 10.6Q-0.95 10.45 -2.35 10.05L-1.15 4.05L-0.2 4.2L0.6 4.25Q1.65 4.25 2.35 3.8Q3.05 3.35 3.25 2.7Q3.5 2.05 3.5 -1.2L3.5 -26.55L10.55 -26.55" />
</g>
<g id="PathID_9" transform="matrix(0.742188, 0, 0, 0.742188, 97.1, 92.4)" opacity="0.9">
<path style="fill:#000000;fill-opacity:1" d="M3.5 -26.55L10.05 -26.55L10.05 -22.65Q11.3 -24.65 13.45 -25.9Q15.65 -27.15 18.3 -27.15Q22.95 -27.15 26.15 -23.5Q29.4 -19.9 29.4 -13.4Q29.4 -6.75 26.15 -3.05Q22.9 0.6 18.25 0.6Q16.05 0.6 14.25 -0.25Q12.5 -1.15 10.55 -3.25L10.55 10.1L3.5 10.1L3.5 -26.55M10.45 -13.7Q10.45 -9.25 12.2 -7.1Q13.95 -5 16.5 -5Q18.95 -5 20.55 -6.95Q22.2 -8.9 22.2 -13.35Q22.2 -17.55 20.5 -19.55Q18.85 -21.6 16.4 -21.6Q13.8 -21.6 12.1 -19.6Q10.45 -17.6 10.45 -13.7" />
</g>
<g id="PathID_10" transform="matrix(0.742188, 0, 0, 0.742188, 120.3, 92.4)" opacity="0.9">
<path style="fill:#000000;fill-opacity:1" d="M3 1.7L11.05 2.7Q11.2 4.15 11.95 4.65Q12.95 5.4 15.1 5.4Q17.85 5.4 19.2 4.6Q20.15 4.05 20.6 2.8Q20.95 1.95 20.95 -0.45L20.95 -4.35Q17.8 0 13 0Q7.65 0 4.5 -4.5Q2.1 -8.1 2.1 -13.4Q2.1 -20.1 5.3 -23.6Q8.5 -27.15 13.25 -27.15Q18.2 -27.15 21.4 -22.8L21.4 -26.55L28 -26.55L28 -2.7Q28 2 27.2 4.3Q26.4 6.65 25 7.95Q23.6 9.3 21.25 10.05Q18.95 10.8 15.35 10.8Q8.6 10.8 5.75 8.45Q2.95 6.15 2.95 2.6L3 1.7M9.3 -13.8Q9.3 -9.6 10.9 -7.65Q12.55 -5.7 14.95 -5.7Q17.5 -5.7 19.25 -7.7Q21.05 -9.7 21.05 -13.65Q21.05 -17.75 19.35 -19.75Q17.65 -21.75 15.05 -21.75Q12.55 -21.75 10.9 -19.75Q9.3 -17.8 9.3 -13.8" />
</g>
</svg>
