<?xml version="1.0" encoding="utf-8"?><!-- Create by Hoc Tin Hoc Qua Tro Choi--><!-- Browser Support Chrome:4.0 IE:9.0 Firefox:3.0 Safari:3.2 Opera:10.1 -->
<svg version="1.1" id="Layer_1"
xmlns="http://www.w3.org/2000/svg"
xmlns:xlink="http://www.w3.org/1999/xlink"
width="176px" height="74px"
xml:space="preserve">
<g id="PathID_35" transform="matrix(2.44444, 0, 0, 1, 103, 40)" opacity="1">
<path style="fill:#67D867;fill-opacity:1" d="M51.5 -51.5L51.5 51.5L-51.5 51.5L-51.5 -51.5L51.5 -51.5" />
</g>
<g id="PathID_36" transform="matrix(0.46875, 0, 0, 0.46875, 51.2, 48.7)" opacity="1">
<path style="fill:#000000;fill-opacity:1" d="M13.3 0L13.3 -32.3L1.2 -32.3L1.2 -36.65L30.25 -36.65L30.25 -32.3L18.15 -32.3L18.15 0L13.3 0" />
</g>
<g id="PathID_37" transform="matrix(0.46875, 0, 0, 0.46875, 64.95, 48.7)" opacity="1">
<path style="fill:#000000;fill-opacity:1" d="M3.35 0L3.35 -26.55L7.4 -26.55L7.4 -22.5Q8.9 -25.35 10.2 -26.25Q11.55 -27.15 13.1 -27.15Q15.4 -27.15 17.75 -25.7L16.15 -21.5Q14.55 -22.5 12.9 -22.5Q11.4 -22.5 10.2 -21.6Q9.05 -20.7 8.55 -19.15Q7.85 -16.75 7.85 -13.9L7.85 0L3.35 0" />
</g>
<g id="PathID_38" transform="matrix(0.46875, 0, 0, 0.46875, 72.9, 48.7)" opacity="1">
<path style="fill:#000000;fill-opacity:1" d="M20.7 -3.35Q18.2 -1.15 15.85 -0.25Q13.55 0.6 10.9 0.6Q6.55 0.6 4.2 -1.5Q1.85 -3.65 1.85 -7Q1.85 -8.95 2.7 -10.55Q3.6 -12.15 5.05 -13.1Q6.5 -14.1 8.3 -14.6Q9.6 -14.95 12.3 -15.3Q17.75 -15.95 20.3 -16.85L20.35 -18Q20.35 -20.75 19.05 -21.85Q17.35 -23.4 13.95 -23.4Q10.75 -23.4 9.25 -22.25Q7.75 -21.15 7.05 -18.35L2.65 -18.95Q3.25 -21.75 4.6 -23.5Q6 -25.25 8.6 -26.2Q11.2 -27.15 14.6 -27.15Q18 -27.15 20.1 -26.3Q22.25 -25.5 23.25 -24.3Q24.25 -23.1 24.65 -21.25Q24.9 -20.1 24.9 -17.1L24.9 -11.1Q24.9 -4.85 25.15 -3.15Q25.45 -1.5 26.3 0L21.6 0Q20.9 -1.4 20.7 -3.35M20.3 -13.3Q17.85 -12.3 12.95 -11.6Q10.15 -11.2 9 -10.7Q7.85 -10.2 7.25 -9.2Q6.65 -8.25 6.65 -7.1Q6.65 -5.3 8 -4.1Q9.35 -2.95 12 -2.95Q14.6 -2.95 16.6 -4.05Q18.65 -5.2 19.6 -7.15Q20.3 -8.65 20.3 -11.65L20.3 -13.3M10.9 -29.85L14.2 -36.85L20.15 -36.85L14.65 -29.85L10.9 -29.85" />
</g>
<g id="PathID_39" transform="matrix(0.46875, 0, 0, 0.46875, 86.25, 48.7)" opacity="1">
<path style="fill:#000000;fill-opacity:1" d="M3.4 -31.5L3.4 -36.65L7.9 -36.65L7.9 -31.5L3.4 -31.5M3.4 0L3.4 -26.55L7.9 -26.55L7.9 0L3.4 0" />
</g>
<g id="PathID_40" transform="matrix(0.46875, 0, 0, 0.46875, 98.2, 48.7)" opacity="1">
<path style="fill:#000000;fill-opacity:1" d="M13.2 -4L13.8 -0.05Q11.9 0.35 10.4 0.35Q7.95 0.35 6.6 -0.4Q5.25 -1.2 4.7 -2.45Q4.15 -3.7 4.15 -7.75L4.15 -23.05L0.8 -23.05L0.8 -26.55L4.15 -26.55L4.15 -33.1L8.65 -35.8L8.65 -26.55L13.2 -26.55L13.2 -23.05L8.65 -23.05L8.65 -7.5Q8.65 -5.6 8.85 -5.05Q9.1 -4.5 9.65 -4.15Q10.2 -3.85 11.2 -3.85Q11.95 -3.85 13.2 -4" />
</g>
<g id="PathID_41" transform="matrix(0.46875, 0, 0, 0.46875, 104.85, 48.7)" opacity="1">
<path style="fill:#000000;fill-opacity:1" d="M3.4 -31.5L3.4 -36.65L7.9 -36.65L7.9 -31.5L3.4 -31.5M3.4 0L3.4 -26.55L7.9 -26.55L7.9 0L3.4 0" />
</g>
<g id="PathID_42" transform="matrix(0.46875, 0, 0, 0.46875, 110.15, 48.7)" opacity="1">
<path style="fill:#000000;fill-opacity:1" d="M3.35 0L3.35 -26.55L7.35 -26.55L7.35 -22.8Q8.6 -24.75 10.65 -25.95Q12.75 -27.15 15.45 -27.15Q18.4 -27.15 20.25 -25.9Q22.15 -24.7 22.95 -22.5Q26.1 -27.15 31.2 -27.15Q35.15 -27.15 37.3 -24.95Q39.45 -22.75 39.45 -18.2L39.45 0L34.95 0L34.95 -16.7Q34.95 -19.4 34.5 -20.6Q34.05 -21.8 32.9 -22.5Q31.75 -23.25 30.2 -23.25Q27.4 -23.25 25.5 -21.35Q23.65 -19.5 23.65 -15.4L23.65 0L19.15 0L19.15 -17.25Q19.15 -20.25 18.05 -21.75Q16.95 -23.25 14.45 -23.25Q12.55 -23.25 10.9 -22.25Q9.3 -21.25 8.55 -19.3Q7.85 -17.4 7.85 -13.75L7.85 0L3.35 0" />
</g>
</svg>
