<?xml version="1.0" encoding="utf-8"?><!-- Create by Hoc Tin Hoc Qua Tro Choi--><!-- Browser Support Chrome:4.0 IE:9.0 Firefox:3.0 Safari:3.2 Opera:10.1 -->
<svg version="1.1" id="Layer_1"
xmlns="http://www.w3.org/2000/svg"
xmlns:xlink="http://www.w3.org/1999/xlink"
width="176px" height="74px"
xml:space="preserve">
<g id="PathID_28" transform="matrix(2.44444, 0, 0, 1, 103, 40)" opacity="1">
<path style="fill:#67D867;fill-opacity:1" d="M51.5 -51.5L51.5 51.5L-51.5 51.5L-51.5 -51.5L51.5 -51.5" />
</g>
<g id="PathID_29" transform="matrix(0.46875, 0, 0, 0.46875, 45, 48.7)" opacity="1">
<path style="fill:#000000;fill-opacity:1" d="M3.95 0L3.95 -16.7L-0.1 -16.7L-0.1 -20L3.95 -20L3.95 -36.65L16.6 -36.65Q20.85 -36.65 23.1 -36.1Q26.25 -35.4 28.45 -33.5Q31.35 -31.05 32.8 -27.2Q34.25 -23.4 34.25 -18.5Q34.25 -12.9 32.45 -8.85Q30.7 -4.85 28.2 -3Q25.75 -1.2 22.5 -0.4Q20.75 0 17.15 0L3.95 0M8.8 -4.35L16.6 -4.35Q20.25 -4.35 22.3 -5Q24.35 -5.65 25.55 -6.85Q27.3 -8.6 28.25 -11.5Q29.25 -14.4 29.25 -18.55Q29.25 -22.85 28.25 -25.4Q27.3 -28 25.75 -29.55Q24.2 -31.1 22.3 -31.7Q20.4 -32.3 16.5 -32.3L8.8 -32.3L8.8 -20L18.9 -20L18.9 -16.7L8.8 -16.7L8.8 -4.35" />
</g>
<g id="PathID_30" transform="matrix(0.46875, 0, 0, 0.46875, 62.3, 48.7)" opacity="1">
<path style="fill:#000000;fill-opacity:1" d="M1.7 -13.25Q1.7 -20.65 5.8 -24.2Q9.2 -27.15 14.15 -27.15Q19.6 -27.15 23.1 -23.55Q26.6 -19.95 26.6 -13.65Q26.6 -8.5 25.05 -5.55Q23.5 -2.65 20.55 -1Q17.6 0.6 14.15 0.6Q8.55 0.6 5.1 -2.95Q1.7 -6.55 1.7 -13.25M6.35 -13.25Q6.35 -8.15 8.55 -5.6Q10.75 -3.1 14.15 -3.1Q17.5 -3.1 19.7 -5.6Q21.95 -8.15 21.95 -13.4Q21.95 -18.3 19.7 -20.85Q17.45 -23.4 14.15 -23.4Q10.75 -23.4 8.55 -20.85Q6.35 -18.35 6.35 -13.25M14.2 -34.1L11.3 -29.85L6.15 -29.85L11.6 -36.85L16.45 -36.85L22.15 -29.85L17 -29.85L14.2 -34.1" />
</g>
<g id="PathID_31" transform="matrix(0.46875, 0, 0, 0.46875, 75.65, 48.7)" opacity="1">
<path style="fill:#000000;fill-opacity:1" d="M3.4 -31.5L3.4 -36.65L7.9 -36.65L7.9 -31.5L3.4 -31.5M3.4 0L3.4 -26.55L7.9 -26.55L7.9 0L3.4 0" />
</g>
<g id="PathID_32" transform="matrix(0.46875, 0, 0, 0.46875, 87.6, 48.7)" opacity="1">
<path style="fill:#000000;fill-opacity:1" d="M13.2 -4L13.8 -0.05Q11.9 0.35 10.4 0.35Q7.95 0.35 6.6 -0.4Q5.25 -1.2 4.7 -2.45Q4.15 -3.7 4.15 -7.75L4.15 -23.05L0.8 -23.05L0.8 -26.55L4.15 -26.55L4.15 -33.1L8.65 -35.8L8.65 -26.55L13.2 -26.55L13.2 -23.05L8.65 -23.05L8.65 -7.5Q8.65 -5.6 8.85 -5.05Q9.1 -4.5 9.65 -4.15Q10.2 -3.85 11.2 -3.85Q11.95 -3.85 13.2 -4" />
</g>
<g id="PathID_33" transform="matrix(0.46875, 0, 0, 0.46875, 94.25, 48.7)" opacity="1">
<path style="fill:#000000;fill-opacity:1" d="M20.7 -3.35Q18.2 -1.15 15.85 -0.25Q13.55 0.6 10.9 0.6Q6.55 0.6 4.2 -1.5Q1.85 -3.65 1.85 -7Q1.85 -8.95 2.7 -10.55Q3.6 -12.15 5.05 -13.1Q6.5 -14.1 8.3 -14.6Q9.6 -14.95 12.3 -15.3Q17.75 -15.95 20.3 -16.85L20.35 -18Q20.35 -20.75 19.05 -21.85Q17.35 -23.4 13.95 -23.4Q10.75 -23.4 9.25 -22.25Q7.75 -21.15 7.05 -18.35L2.65 -18.95Q3.25 -21.75 4.6 -23.5Q6 -25.25 8.6 -26.2Q11.2 -27.15 14.6 -27.15Q18 -27.15 20.1 -26.3Q22.25 -25.5 23.25 -24.3Q24.25 -23.1 24.65 -21.25Q24.9 -20.1 24.9 -17.1L24.9 -11.1Q24.9 -4.85 25.15 -3.15Q25.45 -1.5 26.3 0L21.6 0Q20.9 -1.4 20.7 -3.35M20.3 -13.3Q17.85 -12.3 12.95 -11.6Q10.15 -11.2 9 -10.7Q7.85 -10.2 7.25 -9.2Q6.65 -8.25 6.65 -7.1Q6.65 -5.3 8 -4.1Q9.35 -2.95 12 -2.95Q14.6 -2.95 16.6 -4.05Q18.65 -5.2 19.6 -7.15Q20.3 -8.65 20.3 -11.65L20.3 -13.3" />
</g>
<g id="PathID_34" transform="matrix(0.46875, 0, 0, 0.46875, 107.6, 48.7)" opacity="1">
<path style="fill:#000000;fill-opacity:1" d="M3.2 10.3L2.7 6.05Q4.15 6.45 5.25 6.45Q6.75 6.45 7.65 5.95Q8.55 5.45 9.1 4.55Q9.55 3.9 10.5 1.2L10.9 0.1L0.8 -26.55L5.6 -26.55L11.15 -11.15Q12.2 -8.25 13.05 -5Q13.85 -8.1 14.95 -11.05L20.65 -26.55L25.15 -26.55L15.05 0.5Q13.45 4.85 12.55 6.5Q11.35 8.75 9.8 9.75Q8.25 10.8 6.1 10.8Q4.8 10.8 3.2 10.3" />
</g>
</svg>
