<?xml version="1.0" encoding="utf-8"?><!-- Create by Hoc Tin Hoc Qua Tro Choi--><!-- Browser Support Chrome:4.0 IE:9.0 Firefox:3.0 Safari:3.2 Opera:10.1 -->
<svg version="1.1" id="Layer_1"
xmlns="http://www.w3.org/2000/svg"
xmlns:xlink="http://www.w3.org/1999/xlink"
width="176px" height="74px"
xml:space="preserve">
<g id="PathID_22" transform="matrix(2.44444, 0, 0, 1, 103, 40)" opacity="1">
<path style="fill:#67D867;fill-opacity:1" d="M51.5 -51.5L51.5 51.5L-51.5 51.5L-51.5 -51.5L51.5 -51.5" />
</g>
<g id="PathID_23" transform="matrix(0.46875, 0, 0, 0.46875, 45, 48.7)" opacity="1">
<path style="fill:#000000;fill-opacity:1" d="M3.75 0L3.75 -36.65L17.45 -36.65Q21.65 -36.65 24.15 -35.5Q26.7 -34.4 28.15 -32.1Q29.6 -29.8 29.6 -27.3Q29.6 -24.95 28.3 -22.85Q27 -20.8 24.45 -19.55Q27.8 -18.55 29.6 -16.2Q31.4 -13.85 31.4 -10.65Q31.4 -8.05 30.3 -5.8Q29.2 -3.6 27.6 -2.4Q26 -1.2 23.6 -0.6Q21.2 0 17.7 0L3.75 0M8.6 -21.3L16.45 -21.3Q19.65 -21.3 21.05 -21.7Q22.9 -22.25 23.85 -23.5Q24.8 -24.8 24.8 -26.7Q24.8 -28.5 23.9 -29.85Q23.05 -31.25 21.4 -31.75Q19.8 -32.3 15.85 -32.3L8.6 -32.3L8.6 -21.3M8.6 -4.35L17.7 -4.35Q20.05 -4.35 21 -4.5Q22.7 -4.8 23.8 -5.5Q24.95 -6.2 25.65 -7.55Q26.4 -8.9 26.4 -10.65Q26.4 -12.7 25.3 -14.2Q24.2 -15.7 22.35 -16.3Q20.5 -16.95 17 -16.95L8.6 -16.95L8.6 -4.35" />
</g>
<g id="PathID_24" transform="matrix(0.46875, 0, 0, 0.46875, 61, 48.7)" opacity="1">
<path style="fill:#000000;fill-opacity:1" d="M1.7 -13.25Q1.7 -20.65 5.8 -24.2Q9.2 -27.15 14.15 -27.15Q19.6 -27.15 23.1 -23.55Q26.6 -19.95 26.6 -13.65Q26.6 -8.5 25.05 -5.55Q23.5 -2.65 20.55 -1Q17.6 0.6 14.15 0.6Q8.55 0.6 5.1 -2.95Q1.7 -6.55 1.7 -13.25M6.35 -13.25Q6.35 -8.15 8.55 -5.6Q10.75 -3.1 14.15 -3.1Q17.5 -3.1 19.7 -5.6Q21.95 -8.15 21.95 -13.4Q21.95 -18.3 19.7 -20.85Q17.45 -23.4 14.15 -23.4Q10.75 -23.4 8.55 -20.85Q6.35 -18.35 6.35 -13.25M14.2 -34.1L11.3 -29.85L6.15 -29.85L11.6 -36.85L16.45 -36.85L22.15 -29.85L17 -29.85L14.2 -34.1M11.45 8.15L11.45 3L16.6 3L16.6 8.15L11.45 8.15" />
</g>
<g id="PathID_25" transform="matrix(0.46875, 0, 0, 0.46875, 81, 48.7)" opacity="1">
<path style="fill:#000000;fill-opacity:1" d="M3.4 0L3.4 -26.55L7.45 -26.55L7.45 -22.75Q10.35 -27.15 15.85 -27.15Q18.25 -27.15 20.25 -26.25Q22.3 -25.4 23.3 -24Q24.3 -22.6 24.7 -20.7Q24.95 -19.45 24.95 -16.3L24.95 0L20.45 0L20.45 -16.15Q20.45 -18.9 19.9 -20.25Q19.4 -21.6 18.05 -22.4Q16.7 -23.25 14.9 -23.25Q12.05 -23.25 9.95 -21.4Q7.9 -19.6 7.9 -14.5L7.9 0L3.4 0" />
</g>
<g id="PathID_26" transform="matrix(0.46875, 0, 0, 0.46875, 94.35, 48.7)" opacity="1">
<path style="fill:#000000;fill-opacity:1" d="M20.7 -3.35Q18.2 -1.15 15.85 -0.25Q13.55 0.6 10.9 0.6Q6.55 0.6 4.2 -1.5Q1.85 -3.65 1.85 -7Q1.85 -8.95 2.7 -10.55Q3.6 -12.15 5.05 -13.1Q6.5 -14.1 8.3 -14.6Q9.6 -14.95 12.3 -15.3Q17.75 -15.95 20.3 -16.85L20.35 -18Q20.35 -20.75 19.05 -21.85Q17.35 -23.4 13.95 -23.4Q10.75 -23.4 9.25 -22.25Q7.75 -21.15 7.05 -18.35L2.65 -18.95Q3.25 -21.75 4.6 -23.5Q6 -25.25 8.6 -26.2Q11.2 -27.15 14.6 -27.15Q18 -27.15 20.1 -26.3Q22.25 -25.5 23.25 -24.3Q24.25 -23.1 24.65 -21.25Q24.9 -20.1 24.9 -17.1L24.9 -11.1Q24.9 -4.85 25.15 -3.15Q25.45 -1.5 26.3 0L21.6 0Q20.9 -1.4 20.7 -3.35M20.3 -13.3Q17.85 -12.3 12.95 -11.6Q10.15 -11.2 9 -10.7Q7.85 -10.2 7.25 -9.2Q6.65 -8.25 6.65 -7.1Q6.65 -5.3 8 -4.1Q9.35 -2.95 12 -2.95Q14.6 -2.95 16.6 -4.05Q18.65 -5.2 19.6 -7.15Q20.3 -8.65 20.3 -11.65L20.3 -13.3M5.7 -29.75Q5.65 -32.35 7.1 -33.9Q8.55 -35.5 10.75 -35.5Q12.35 -35.5 15 -34.15Q16.5 -33.4 17.35 -33.4Q18.15 -33.4 18.55 -33.8Q19 -34.25 19.2 -35.6L22.45 -35.6Q22.35 -32.7 21 -31.25Q19.65 -29.85 17.55 -29.85Q15.95 -29.85 13.4 -31.25Q11.7 -32.2 10.95 -32.2Q10.1 -32.2 9.55 -31.55Q9 -30.95 9.05 -29.75L5.7 -29.75" />
</g>
<g id="PathID_27" transform="matrix(0.46875, 0, 0, 0.46875, 107.7, 48.7)" opacity="1">
<path style="fill:#000000;fill-opacity:1" d="M1.7 -13.25Q1.7 -20.65 5.8 -24.2Q9.2 -27.15 14.15 -27.15Q19.6 -27.15 23.1 -23.55Q26.6 -19.95 26.6 -13.65Q26.6 -8.5 25.05 -5.55Q23.5 -2.65 20.55 -1Q17.6 0.6 14.15 0.6Q8.55 0.6 5.1 -2.95Q1.7 -6.55 1.7 -13.25M6.35 -13.25Q6.35 -8.15 8.55 -5.6Q10.75 -3.1 14.15 -3.1Q17.5 -3.1 19.7 -5.6Q21.95 -8.15 21.95 -13.4Q21.95 -18.3 19.7 -20.85Q17.45 -23.4 14.15 -23.4Q10.75 -23.4 8.55 -20.85Q6.35 -18.35 6.35 -13.25" />
</g>
</svg>
