<?xml version="1.0" encoding="utf-8"?><!-- Create by Hoc Tin Hoc Qua Tro Choi--><!-- Browser Support Chrome:4.0 IE:9.0 Firefox:3.0 Safari:3.2 Opera:10.1 -->
<svg version="1.1" id="Layer_1"
xmlns="http://www.w3.org/2000/svg"
xmlns:xlink="http://www.w3.org/1999/xlink"
width="800px" height="600px"
xml:space="preserve">
<g id="PathID_1" transform="matrix(-0.885666, 0.464322, -1.04756, -1.99815, 769.95, 421.5)" opacity="1">
<path style="fill:#7A411B;fill-opacity:1" d="M18 -52.8Q-3.9 -26.7 -0.95 7.2Q2.05 41.15 28.1 63Q40.3 73.25 54.25 78.05Q45.1 81 34.95 81.9Q1 84.9 -25.1 63Q-51.15 41.15 -54.15 7.2Q-57.1 -26.7 -35.2 -52.8Q-13.3 -78.85 20.6 -81.85Q38.65 -83.4 54.45 -77.95Q33.3 -71 18 -52.8" />
</g>
<g id="PathID_2" transform="matrix(0.968983, 0.247128, -0.631549, 2.47629, 59, 353.5)" opacity="1">
<path style="fill:#800000;fill-opacity:1" d="M9.05 -52.8Q-12.8 -26.7 -9.85 7.2Q-6.85 41.15 19.2 63Q33.9 75.35 51.05 79.75Q44.65 81.3 37.8 81.9Q3.9 84.9 -22.25 63Q-48.3 41.15 -51.3 7.2Q-54.2 -26.7 -32.35 -52.8Q-10.45 -78.85 23.45 -81.85Q38.3 -83.15 51.6 -79.65Q26.5 -73.55 9.05 -52.8" />
</g>
<g id="PathID_3" transform="matrix(1, 0, 0, 1.98333, -14, 542)" opacity="1">
<path style="fill:#81D3EE;fill-opacity:1" d="M58.15 -8.15L58.15 8.15Q58.15 28.85 43.5 43.5Q28.85 58.15 8.15 58.15L-8.15 58.15Q-28.85 58.15 -43.5 43.5Q-58.15 28.85 -58.15 8.15L-58.15 -8.15Q-58.15 -28.85 -43.5 -43.5Q-28.85 -58.15 -8.15 -58.15L8.15 -58.15Q28.85 -58.15 43.5 -43.5Q58.15 -28.85 58.15 -8.15" />
</g>
<g id="PathID_4" transform="matrix(1, 0, 0, 1, -47, 449)" opacity="1">
<path style="fill:#81D3EE;fill-opacity:1" d="M58.15 -8.15L58.15 8.15Q58.15 28.85 43.5 43.5Q28.85 58.15 8.15 58.15L-8.15 58.15Q-28.85 58.15 -43.5 43.5Q-58.15 28.85 -58.15 8.15L-58.15 -8.15Q-58.15 -28.85 -43.5 -43.5Q-28.85 -58.15 -8.15 -58.15L8.15 -58.15Q28.85 -58.15 43.5 -43.5Q58.15 -28.85 58.15 -8.15" />
</g>
<g id="PathID_5" transform="matrix(1, 0, 0, 1, 31, 553)" opacity="1">
<path style="fill:#81D3EE;fill-opacity:1" d="M58.15 -8.15L58.15 8.15Q58.15 28.85 43.5 43.5Q28.85 58.15 8.15 58.15L-8.15 58.15Q-28.85 58.15 -43.5 43.5Q-58.15 28.85 -58.15 8.15L-58.15 -8.15Q-58.15 -28.85 -43.5 -43.5Q-28.85 -58.15 -8.15 -58.15L8.15 -58.15Q28.85 -58.15 43.5 -43.5Q58.15 -28.85 58.15 -8.15" />
</g>
<g id="PathID_6" transform="matrix(1, 0, 0, 1, 102, 599)" opacity="1">
<path style="fill:#81D3EE;fill-opacity:1" d="M58.15 -8.15L58.15 8.15Q58.15 28.85 43.5 43.5Q28.85 58.15 8.15 58.15L-8.15 58.15Q-28.85 58.15 -43.5 43.5Q-58.15 28.85 -58.15 8.15L-58.15 -8.15Q-58.15 -28.85 -43.5 -43.5Q-28.85 -58.15 -8.15 -58.15L8.15 -58.15Q28.85 -58.15 43.5 -43.5Q58.15 -28.85 58.15 -8.15" />
</g>
<g id="PathID_7" transform="matrix(1, 0, 0, 1, 174, 599)" opacity="1">
<path style="fill:#81D3EE;fill-opacity:1" d="M58.15 -8.15L58.15 8.15Q58.15 28.85 43.5 43.5Q28.85 58.15 8.15 58.15L-8.15 58.15Q-28.85 58.15 -43.5 43.5Q-58.15 28.85 -58.15 8.15L-58.15 -8.15Q-58.15 -28.85 -43.5 -43.5Q-28.85 -58.15 -8.15 -58.15L8.15 -58.15Q28.85 -58.15 43.5 -43.5Q58.15 -28.85 58.15 -8.15" />
</g>
<g id="PathID_8" transform="matrix(1.53571, 0, 0, 1.53571, 786, 565)" opacity="1">
<path style="fill:#81D3EE;fill-opacity:1" d="M58.15 -8.15L58.15 8.15Q58.15 28.85 43.5 43.5Q28.85 58.15 8.15 58.15L-8.15 58.15Q-28.85 58.15 -43.5 43.5Q-58.15 28.85 -58.15 8.15L-58.15 -8.15Q-58.15 -28.85 -43.5 -43.5Q-28.85 -58.15 -8.15 -58.15L8.15 -58.15Q28.85 -58.15 43.5 -43.5Q58.15 -28.85 58.15 -8.15" />
</g>
<g id="PathID_9" transform="matrix(3.96667, 0, 0, 1, 416, 599)" opacity="1">
<path style="fill:#81D3EE;fill-opacity:1" d="M58.15 -8.15L58.15 8.15Q58.15 28.85 43.5 43.5Q28.85 58.15 8.15 58.15L-8.15 58.15Q-28.85 58.15 -43.5 43.5Q-58.15 28.85 -58.15 8.15L-58.15 -8.15Q-58.15 -28.85 -43.5 -43.5Q-28.85 -58.15 -8.15 -58.15L8.15 -58.15Q28.85 -58.15 43.5 -43.5Q58.15 -28.85 58.15 -8.15" />
</g>
<g id="PathID_10" transform="matrix(1, 0, 0, 1, 102, 573)" opacity="1">
<path style="fill:#81D3EE;fill-opacity:1" d="M58.15 -8.15L58.15 8.15Q58.15 28.85 43.5 43.5Q28.85 58.15 8.15 58.15L-8.15 58.15Q-28.85 58.15 -43.5 43.5Q-58.15 28.85 -58.15 8.15L-58.15 -8.15Q-58.15 -28.85 -43.5 -43.5Q-28.85 -58.15 -8.15 -58.15L8.15 -58.15Q28.85 -58.15 43.5 -43.5Q58.15 -28.85 58.15 -8.15" />
</g>
<g id="PathID_11" transform="matrix(8.22414, 0, 0, 0.263158, 303, 599)" opacity="1">
<path style="fill:#81D3EE;fill-opacity:1" d="M58.15 -8.15L58.15 8.15Q58.15 28.85 43.5 43.5Q28.85 58.15 8.15 58.15L-8.15 58.15Q-28.85 58.15 -43.5 43.5Q-58.15 28.85 -58.15 8.15L-58.15 -8.15Q-58.15 -28.85 -43.5 -43.5Q-28.85 -58.15 -8.15 -58.15L8.15 -58.15Q28.85 -58.15 43.5 -43.5Q58.15 -28.85 58.15 -8.15" />
</g>
<g id="PathID_12" transform="matrix(1, 0, 0, 1, 346, 624)" opacity="1">
<path style="fill:#80CDE3;fill-opacity:1" d="M58.15 -8.15L58.15 8.15Q58.15 28.85 43.5 43.5Q28.85 58.15 8.15 58.15L-8.15 58.15Q-28.85 58.15 -43.5 43.5Q-58.15 28.85 -58.15 8.15L-58.15 -8.15Q-58.15 -28.85 -43.5 -43.5Q-28.85 -58.15 -8.15 -58.15L8.15 -58.15Q28.85 -58.15 43.5 -43.5Q58.15 -28.85 58.15 -8.15" />
</g>
<g id="PathID_13" transform="matrix(1, 0, 0, 1, 255, 624)" opacity="1">
<path style="fill:#81D3EE;fill-opacity:1" d="M58.15 -8.15L58.15 8.15Q58.15 28.85 43.5 43.5Q28.85 58.15 8.15 58.15L-8.15 58.15Q-28.85 58.15 -43.5 43.5Q-58.15 28.85 -58.15 8.15L-58.15 -8.15Q-58.15 -28.85 -43.5 -43.5Q-28.85 -58.15 -8.15 -58.15L8.15 -58.15Q28.85 -58.15 43.5 -43.5Q58.15 -28.85 58.15 -8.15" />
</g>
<g id="PathID_14" transform="matrix(3.89846, 0, 0, 1.06992, 462, 624)" opacity="1">
<path style="fill:#81D3EE;fill-opacity:1" d="M54.35 -14.35L54.35 14.35Q54.35 30.9 42.6 42.6Q30.9 54.35 14.35 54.35L-14.35 54.35Q-30.9 54.35 -42.65 42.6Q-54.35 30.9 -54.35 14.35L-54.35 -14.35Q-54.35 -30.9 -42.65 -42.65Q-30.9 -54.35 -14.35 -54.35L14.35 -54.35Q30.9 -54.35 42.6 -42.65Q54.35 -30.9 54.35 -14.35" />
</g>
<g id="PathID_15" transform="matrix(1, 0, 0, 1, 672, 584)" opacity="1">
<path style="fill:#81D3EE;fill-opacity:1" d="M58.15 -8.15L58.15 8.15Q58.15 28.85 43.5 43.5Q28.85 58.15 8.15 58.15L-8.15 58.15Q-28.85 58.15 -43.5 43.5Q-58.15 28.85 -58.15 8.15L-58.15 -8.15Q-58.15 -28.85 -43.5 -43.5Q-28.85 -58.15 -8.15 -58.15L8.15 -58.15Q28.85 -58.15 43.5 -43.5Q58.15 -28.85 58.15 -8.15" />
</g>
<g id="PathID_16" transform="matrix(1, 0, 0, 1, 800, 507)" opacity="1">
<path style="fill:#81D3EE;fill-opacity:1" d="M58.15 -8.15L58.15 8.15Q58.15 28.85 43.5 43.5Q28.85 58.15 8.15 58.15L-8.15 58.15Q-28.85 58.15 -43.5 43.5Q-58.15 28.85 -58.15 8.15L-58.15 -8.15Q-58.15 -28.85 -43.5 -43.5Q-28.85 -58.15 -8.15 -58.15L8.15 -58.15Q28.85 -58.15 43.5 -43.5Q58.15 -28.85 58.15 -8.15" />
</g>
<g id="PathID_17" transform="matrix(1, 0, 0, 1, 817, 484)" opacity="1">
<path style="fill:#81D3EE;fill-opacity:1" d="M58.15 -8.15L58.15 8.15Q58.15 28.85 43.5 43.5Q28.85 58.15 8.15 58.15L-8.15 58.15Q-28.85 58.15 -43.5 43.5Q-58.15 28.85 -58.15 8.15L-58.15 -8.15Q-58.15 -28.85 -43.5 -43.5Q-28.85 -58.15 -8.15 -58.15L8.15 -58.15Q28.85 -58.15 43.5 -43.5Q58.15 -28.85 58.15 -8.15" />
</g>
<g id="PathID_18" transform="matrix(-0.809443, 0.587198, -0.587198, -0.809443, 97, 261.5)" opacity="1">
<path style="fill:#38CF30;fill-opacity:1" d="M77.1 -43Q63 -20.45 65.45 7.3Q67.2 27.25 76.9 43.15Q73.6 48.35 69.45 53.35Q47.35 79.7 13.1 82.65Q-21.1 85.7 -47.45 63.6Q-73.75 41.5 -76.8 7.3Q-79.75 -26.95 -57.7 -53.3Q-35.6 -79.6 -1.35 -82.65Q32.9 -85.6 59.15 -63.5Q70.15 -54.35 77.1 -43" />
</g>
<g id="PathID_19" transform="matrix(1, 0, 0, 1, 47, 277.5)" opacity="1">
<path style="fill:#38CF30;fill-opacity:1" d="M74.65 -45.6Q60.9 -25.6 60.9 0Q60.9 25.6 74.65 45.6Q70.3 51.85 64.55 57.6Q40.7 81.6 6.95 81.6Q-26.8 81.6 -50.8 57.6Q-74.65 33.75 -74.65 0Q-74.65 -33.75 -50.8 -57.75Q-26.8 -81.6 6.95 -81.6Q40.7 -81.6 64.55 -57.75Q70.3 -52 74.65 -45.6" />
</g>
<g id="PathID_20" transform="matrix(1, 0, 0, 1, 31, 197.5)" opacity="1">
<path style="fill:#38CF30;fill-opacity:1" d="M74.65 -45.6Q60.9 -25.6 60.9 0Q60.9 25.6 74.65 45.6Q70.3 51.85 64.55 57.6Q40.7 81.6 6.95 81.6Q-26.8 81.6 -50.8 57.6Q-74.65 33.75 -74.65 0Q-74.65 -33.75 -50.8 -57.75Q-26.8 -81.6 6.95 -81.6Q40.7 -81.6 64.55 -57.75Q70.3 -52 74.65 -45.6" />
</g>
<g id="PathID_21" transform="matrix(-0.666557, 1.26848, -1.20829, -0.634931, 103, 201.5)" opacity="1">
<path style="fill:#38CF30;fill-opacity:1" d="M60.4 -23.05L56.75 -23.3Q47.05 -23.3 40.25 -16.5Q33.45 -9.65 33.45 0Q33.45 9.7 40.25 16.5Q47.05 23.35 56.75 23.35L60.4 23.1Q55.8 34.65 46.25 44.2Q27.95 62.5 2.05 62.5Q-23.8 62.5 -42.1 44.2Q-60.45 25.9 -60.45 0Q-60.45 -25.85 -42.1 -44.15Q-23.8 -62.5 2.05 -62.5Q27.95 -62.5 46.25 -44.15Q55.8 -34.6 60.4 -23.05" />
</g>
<g id="PathID_22" transform="matrix(0.353045, 0.935606, -0.935606, 0.353045, 74, 221.5)" opacity="1">
<path style="fill:#38CF30;fill-opacity:1" d="M77.1 -43Q63 -20.45 65.45 7.3Q67.2 27.25 76.9 43.15Q73.6 48.35 69.45 53.35Q47.35 79.7 13.1 82.65Q-21.1 85.7 -47.45 63.6Q-73.75 41.5 -76.8 7.3Q-79.75 -26.95 -57.7 -53.3Q-35.6 -79.6 -1.35 -82.65Q32.9 -85.6 59.15 -63.5Q70.15 -54.35 77.1 -43" />
</g>
<g id="PathID_23" transform="matrix(-0.714996, -0.699129, 0.699129, -0.714996, 93, 328.5)" opacity="1">
<path style="fill:#38CF30;fill-opacity:1" d="M61.4 -16.8Q54.65 -23.3 45.25 -23.3Q35.55 -23.3 28.75 -16.5Q21.9 -9.65 21.9 0Q21.9 9.7 28.75 16.5Q35.55 23.35 45.25 23.35Q54.65 23.35 61.4 16.85Q57.3 32.15 45.25 44.2Q26.9 62.5 1.05 62.5Q-24.85 62.5 -43.15 44.2Q-61.45 25.9 -61.45 0Q-61.45 -25.85 -43.15 -44.15Q-24.85 -62.5 1.05 -62.5Q26.9 -62.5 45.25 -44.15Q57.3 -32.1 61.4 -16.8" />
</g>
<g id="PathID_24" transform="matrix(1, 0, 0, 1, 688, 254.5)" opacity="1">
<path style="fill:#38CF30;fill-opacity:1" d="M0 -22.25Q-9.15 -22.25 -15.65 -15.8L-15.8 -15.7Q-22.25 -9.15 -22.25 0Q-22.25 9.2 -15.75 15.75Q-9.2 22.25 0 22.25Q9.2 22.25 15.7 15.75L15.75 15.65Q22.3 9.15 22.3 0Q22.3 -9.25 15.75 -15.75Q9.25 -22.25 0 -22.25M59.25 -59.25Q83.8 -34.7 83.8 0Q83.8 34.7 59.3 59.15L59.2 59.3Q34.7 83.75 0 83.75Q-34.65 83.75 -59.2 59.2Q-83.75 34.7 -83.75 0Q-83.75 -34.7 -59.25 -59.25L-59.2 -59.3Q-34.65 -83.75 0 -83.75Q34.7 -83.75 59.25 -59.25" />
</g>
<g id="PathID_25" transform="matrix(1, 0, 0, 1, 771, 296.5)" opacity="1">
<path style="fill:#38CF30;fill-opacity:1" d="M0 -22.25Q-9.15 -22.25 -15.65 -15.8L-15.8 -15.7Q-22.25 -9.15 -22.25 0Q-22.25 9.2 -15.75 15.75Q-9.2 22.25 0 22.25Q9.2 22.25 15.7 15.75L15.75 15.65Q22.3 9.15 22.3 0Q22.3 -9.25 15.75 -15.75Q9.25 -22.25 0 -22.25M59.25 -59.25Q83.8 -34.7 83.8 0Q83.8 34.7 59.3 59.15L59.2 59.3Q34.7 83.75 0 83.75Q-34.65 83.75 -59.2 59.2Q-83.75 34.7 -83.75 0Q-83.75 -34.7 -59.25 -59.25L-59.2 -59.3Q-34.65 -83.75 0 -83.75Q34.7 -83.75 59.25 -59.25" />
</g>
<g id="PathID_26" transform="matrix(1, 0, 0, 1, 800, 254.5)" opacity="1">
<path style="fill:#38CF30;fill-opacity:1" d="M0 -22.25Q-9.15 -22.25 -15.65 -15.8L-15.8 -15.7Q-22.25 -9.15 -22.25 0Q-22.25 9.2 -15.75 15.75Q-9.2 22.25 0 22.25Q9.2 22.25 15.7 15.75L15.75 15.65Q22.3 9.15 22.3 0Q22.3 -9.25 15.75 -15.75Q9.25 -22.25 0 -22.25M59.25 -59.25Q83.8 -34.7 83.8 0Q83.8 34.7 59.3 59.15L59.2 59.3Q34.7 83.75 0 83.75Q-34.65 83.75 -59.2 59.2Q-83.75 34.7 -83.75 0Q-83.75 -34.7 -59.25 -59.25L-59.2 -59.3Q-34.65 -83.75 0 -83.75Q34.7 -83.75 59.25 -59.25" />
</g>
<g id="PathID_27" transform="matrix(1, 0, 0, 1, 711, 347.5)" opacity="1">
<path style="fill:#38CF30;fill-opacity:1" d="M0 -22.25Q-9.15 -22.25 -15.65 -15.8L-15.8 -15.7Q-22.25 -9.15 -22.25 0Q-22.25 9.2 -15.75 15.75Q-9.2 22.25 0 22.25Q9.2 22.25 15.7 15.75L15.75 15.65Q22.3 9.15 22.3 0Q22.3 -9.25 15.75 -15.75Q9.25 -22.25 0 -22.25M59.25 -59.25Q83.8 -34.7 83.8 0Q83.8 34.7 59.3 59.15L59.2 59.3Q34.7 83.75 0 83.75Q-34.65 83.75 -59.2 59.2Q-83.75 34.7 -83.75 0Q-83.75 -34.7 -59.25 -59.25L-59.2 -59.3Q-34.65 -83.75 0 -83.75Q34.7 -83.75 59.25 -59.25" />
</g>
<g id="PathID_28" transform="matrix(1, 0, 0, 1, 724, 354.5)" opacity="1">
<path style="fill:#38CF30;fill-opacity:1" d="M0 -22.25Q-9.15 -22.25 -15.65 -15.8L-15.8 -15.7Q-22.25 -9.15 -22.25 0Q-22.25 9.2 -15.75 15.75Q-9.2 22.25 0 22.25Q9.2 22.25 15.7 15.75L15.75 15.65Q22.3 9.15 22.3 0Q22.3 -9.25 15.75 -15.75Q9.25 -22.25 0 -22.25M59.25 -59.25Q83.8 -34.7 83.8 0Q83.8 34.7 59.3 59.15L59.2 59.3Q34.7 83.75 0 83.75Q-34.65 83.75 -59.2 59.2Q-83.75 34.7 -83.75 0Q-83.75 -34.7 -59.25 -59.25L-59.2 -59.3Q-34.65 -83.75 0 -83.75Q34.7 -83.75 59.25 -59.25" />
</g>
<g id="PathID_29" transform="matrix(1, 0, 0, 1, 680, 248.5)" opacity="1">
<path style="fill:#38CF30;fill-opacity:1" d="M59.35 -27.6L57.8 -27.65Q46.25 -27.65 38.15 -19.55Q30.05 -11.5 30.05 0.1Q30.05 11.6 38.15 19.7Q46.25 27.85 57.8 27.85L59.3 27.85Q54.85 36.65 47.3 44.2Q29 62.5 3.15 62.5Q-22.75 62.5 -41.05 44.2Q-59.35 25.9 -59.35 0Q-59.35 -25.85 -41.05 -44.15Q-22.75 -62.5 3.15 -62.5Q29 -62.5 47.3 -44.15Q54.95 -36.55 59.35 -27.6" />
</g>
<g id="PathID_30" transform="matrix(1, 0, 0, 1, 705, 350.5)" opacity="1">
<path style="fill:#38CF30;fill-opacity:1" d="M60.85 -20.6Q53 -27.65 42.35 -27.65Q30.75 -27.65 22.65 -19.55Q14.6 -11.5 14.6 0.1Q14.6 11.6 22.65 19.7Q30.75 27.85 42.35 27.85Q53 27.85 60.75 20.85Q56.25 33.75 45.85 44.2Q27.5 62.5 1.65 62.5Q-24.25 62.5 -42.55 44.2Q-60.85 25.9 -60.85 0Q-60.85 -25.85 -42.55 -44.15Q-24.25 -62.5 1.65 -62.5Q27.5 -62.5 45.85 -44.15Q56.35 -33.65 60.85 -20.6" />
</g>
<g id="PathID_31" transform="matrix(1.3871, 0, 0, 1, 174, 61.5)" opacity="1">
<path style="fill:#FFFFFF;fill-opacity:1" d="M64.35 -23.85Q90.85 2.65 90.7 40.3Q90.7 44.4 87.75 47.35Q84.8 50.25 80.7 50.25L-80.7 50.4Q-84.8 50.4 -87.75 47.5Q-90.7 44.55 -90.7 40.4Q-90.7 2.65 -64.15 -23.85Q-37.65 -50.4 0.05 -50.4Q37.8 -50.4 64.35 -23.85M0.05 -30.4Q-29.35 -30.4 -50 -9.7Q-67.1 7.35 -70.05 30.4L70.15 30.25Q67.25 7.35 50.2 -9.7Q29.5 -30.4 0.05 -30.4" />
</g>
</svg>
