<?xml version="1.0" encoding="utf-8"?><!-- Create by Hoc Tin Hoc Qua Tro Choi--><!-- Browser Support Chrome:4.0 IE:9.0 Firefox:3.0 Safari:3.2 Opera:10.1 -->
<svg version="1.1" id="Layer_1"
xmlns="http://www.w3.org/2000/svg"
xmlns:xlink="http://www.w3.org/1999/xlink"
width="80px" height="81px"
xml:space="preserve">
<g id="PathID_1" transform="matrix(0.196078, 0, 0, 0.821095, 10.5, 39.5)" opacity="1">
<path style="fill:#993E00;fill-opacity:1" d="M51.5 -51.5L51.5 51.5L-51.5 51.5L-51.5 -51.5L51.5 -51.5" />
</g>
<g id="PathID_2" transform="matrix(0.196078, 0, 0, 0.821095, 68.5, 39.5)" opacity="1">
<path style="fill:#993E00;fill-opacity:1" d="M51.5 -51.5L51.5 51.5L-51.5 51.5L-51.5 -51.5L51.5 -51.5" />
</g>
<g id="PathID_3" transform="matrix(0.499841, 0, 0, 0.522221, 40.5, 39.5)" opacity="1">
<path style="fill:#993E00;fill-opacity:1" d="M54.35 -42.35L54.35 42.35Q54.35 54.35 42.35 54.35L-42.35 54.35Q-54.35 54.35 -54.35 42.35L-54.35 -42.35Q-54.35 -54.35 -42.35 -54.35L42.35 -54.35Q54.35 -54.35 54.35 -42.35" />
</g>
<g id="PathID_4" transform="matrix(0.813473, 0, 0, 0.162409, 38.25, 5.1)" opacity="1">
<path style="fill:#38CF30;fill-opacity:1" d="M51.5 -51.5L51.5 51.5L-51.5 51.5L-51.5 -51.5L51.5 -51.5" />
</g>
<g id="PathID_5" transform="matrix(0.83264, 0, 0, 0.162409, 40.45, 74.15)" opacity="1">
<path style="fill:#38CF30;fill-opacity:1" d="M51.5 -51.5L51.5 51.5L-51.5 51.5L-51.5 -51.5L51.5 -51.5" />
</g>
</svg>
