<?xml version="1.0" encoding="utf-8"?><!-- Create by Hoc Tin Hoc Qua Tro Choi--><!-- Browser Support Chrome:4.0 IE:9.0 Firefox:3.0 Safari:3.2 Opera:10.1 -->
<svg version="1.1" id="Layer_1"
xmlns="http://www.w3.org/2000/svg"
xmlns:xlink="http://www.w3.org/1999/xlink"
width="153px" height="150px"
xml:space="preserve">
<g id="PathID_1" transform="matrix(1, 0, 0, 1, 79, 75)" opacity="1">
<path style="fill:#FF6600;fill-opacity:1" d="M20 -21.75L41.75 -20.8Q63.85 -19.2 64.9 -15.6Q65.95 -12.05 49.4 2.45Q41.15 9.7 32.7 16.25L39.3 36.8Q45.05 58 40.85 60.8Q36.65 63.5 18.15 52.05L0.6 40.05L-16.3 52.4Q-34.25 64.25 -39.25 61.45Q-44.1 58.65 -38.5 37.5L-31.9 16.9Q-40.95 11.25 -49.55 4.4Q-66.75 -8.95 -64.65 -14.3Q-62.45 -19.7 -41.1 -21Q-30.3 -21.6 -20 -21.25Q-16.9 -31.2 -12.95 -41.3Q-4.85 -61.5 -0.35 -61.95Q4.2 -62.45 12.65 -42.2Q16.75 -32.05 20 -21.75" />
</g>
</svg>
